<svg version="1.1" id="Layer_1" xmlns="http://www.w3.org/2000/svg" xmlns:xlink="http://www.w3.org/1999/xlink" x="0px" y="0px"
	 width="100%" viewBox="0 0 592 560" enable-background="new 0 0 592 560" xml:space="preserve">
<path fill="#000000" opacity="1.000000" stroke="none" 
	d="
M270.000366,87.667534 
	C292.995636,87.667709 315.495850,87.950264 337.984650,87.566429 
	C352.240723,87.323112 366.150146,87.496712 378.791595,95.476379 
	C382.507629,97.822052 387.143890,98.246323 391.004059,100.797829 
	C397.290222,104.952835 399.638031,111.762680 402.905823,117.715378 
	C407.671600,126.396774 410.237549,136.171417 414.957886,144.989517 
	C417.490784,149.721237 417.807800,155.333725 418.026825,160.518021 
	C418.516754,172.114929 419.585327,183.859543 416.792053,195.317459 
	C414.390808,205.167465 408.773682,213.497803 402.897339,221.572144 
	C399.660553,226.019714 397.142029,231.040695 393.723969,235.200577 
	C386.962219,243.429947 379.289551,251.163773 367.496063,251.286285 
	C348.668610,251.481873 329.836487,251.460800 311.009155,251.264679 
	C306.734802,251.220169 304.806915,252.304794 305.271393,256.838715 
	C305.737701,261.390656 303.884430,265.703308 302.949493,270.032959 
	C299.769653,284.759003 302.115051,299.587769 301.365784,314.338654 
	C301.268585,316.251526 302.092926,317.113098 304.109009,317.738403 
	C310.762787,319.802185 317.443909,321.711273 324.412018,322.101898 
	C329.841614,322.406250 334.458130,324.762665 338.417694,327.935638 
	C346.609741,334.500244 356.879486,338.774384 361.989685,348.865295 
	C363.114471,351.086304 364.689636,352.936554 367.737274,352.912506 
	C369.406128,352.899323 370.311066,354.357819 370.060547,356.123840 
	C369.831207,357.740662 368.576782,358.036438 367.175079,358.336517 
	C360.945496,359.669983 357.802399,355.536133 355.422638,351.139465 
	C352.491760,345.724579 348.073059,342.291290 342.950592,339.373016 
	C341.238892,338.397858 339.468475,337.327637 338.143066,335.909943 
	C334.281281,331.779419 329.805939,329.080109 324.128540,328.170929 
	C316.824341,327.001221 309.384766,326.435974 302.834015,323.441376 
	C300.905060,324.967987 301.372772,326.583618 301.363983,328.009338 
	C301.222900,350.829834 301.119720,373.650543 301.019928,396.471252 
	C301.017120,397.110138 300.921356,397.913940 301.248932,398.364624 
	C308.357605,408.143860 313.560089,419.277039 320.875977,428.723602 
	C327.731506,437.575684 335.818604,445.712524 342.761566,454.537903 
	C350.206390,464.001312 358.430664,472.613892 366.737854,481.203827 
	C369.600037,484.163422 369.293060,488.295898 372.134186,491.501495 
	C367.683777,492.981537 365.292297,492.564117 363.321625,487.986023 
	C361.246826,483.165833 356.984772,479.494446 353.054474,475.951111 
	C349.057343,472.347534 345.720093,468.292572 342.519104,464.003235 
	C334.861908,453.742706 326.194336,444.313721 317.652069,434.797546 
	C314.922150,431.756378 312.993805,428.300262 311.269501,424.722046 
	C308.022339,417.983704 301.652832,413.317780 299.943542,405.882629 
	C297.921234,406.440002 297.639099,407.588654 297.569519,408.453918 
	C296.482849,421.969604 291.332245,434.555542 288.550537,447.692627 
	C285.569183,461.772583 281.054535,475.524384 277.351379,489.457245 
	C276.357025,493.198456 274.061646,492.309692 271.372894,491.841949 
	C271.075226,488.622803 271.722717,485.753998 272.575012,482.922852 
	C278.027130,464.811615 281.928467,446.278198 287.100189,428.123840 
	C290.159668,417.384003 290.836334,406.167480 294.800842,395.713470 
	C295.581879,393.654022 295.663208,391.500671 295.660950,389.319733 
	C295.640778,369.823730 295.518280,350.326202 295.748291,330.832916 
	C295.801392,326.332397 294.324677,325.222290 290.019806,325.253448 
	C265.192902,325.433380 240.362427,325.174164 215.536484,325.410980 
	C204.062057,325.520447 193.396896,322.571564 183.324722,317.676788 
	C171.209122,311.788971 159.295013,305.473969 147.455185,299.005707 
	C138.436142,294.078522 128.698471,290.050842 119.841003,284.832336 
	C114.629814,281.762115 110.486008,282.569397 105.483765,283.152649 
	C100.879555,283.689392 96.164833,283.385864 91.502632,283.281525 
	C88.138657,283.206299 86.519363,281.619415 85.418610,278.049988 
	C84.203384,274.109406 84.544495,269.637726 81.466682,266.138550 
	C79.469894,263.868439 81.168900,261.169617 82.857361,259.411530 
	C87.243973,254.844101 92.012268,250.611603 98.638710,249.702103 
	C102.705658,249.143906 104.732460,246.752747 104.546730,242.999573 
	C104.222549,236.448746 107.397568,231.119293 110.114700,225.687546 
	C111.801201,222.316132 115.440407,223.685196 118.278763,223.893036 
	C120.727921,224.072388 121.264793,226.117111 121.328331,228.314880 
	C121.570045,236.675797 120.839264,244.536636 116.922493,252.463058 
	C113.227318,259.941071 114.186531,268.621674 118.755760,275.902740 
	C121.718529,280.623871 127.498703,282.575012 132.301956,284.733490 
	C149.729172,292.564667 165.615417,303.265686 182.973724,311.180115 
	C194.459122,316.416870 206.202209,319.898834 219.033447,319.749695 
	C242.692032,319.474701 266.356903,319.572968 290.017181,319.762268 
	C294.322449,319.796722 295.902344,318.711273 295.745331,314.194031 
	C295.421448,304.873871 295.942780,295.522644 295.564087,286.206665 
	C295.207062,277.423584 296.827972,268.992157 298.834534,260.577209 
	C300.794189,252.358704 299.983948,250.659286 291.491913,250.541107 
	C279.354065,250.372192 267.722778,247.688644 256.277893,244.261108 
	C247.247253,241.556610 237.824982,239.425934 229.998184,233.740860 
	C223.191788,228.796982 217.143967,222.928574 210.870560,217.326340 
	C205.800766,212.798935 201.275742,207.855347 196.837585,202.812759 
	C188.827652,193.711945 181.898926,184.022339 182.647217,170.950638 
	C183.102905,162.990295 182.160248,155.024948 183.371216,147.032623 
	C184.831696,137.393356 188.328857,128.446823 192.014587,119.610176 
	C194.467789,113.728516 195.983948,107.446251 200.405594,102.272369 
	C208.681580,92.588409 218.438431,86.425423 231.397690,85.622124 
	C244.195831,84.828819 256.686584,89.160286 270.000366,87.667534 
M190.466431,182.923889 
	C194.603683,193.174438 202.848663,200.372833 210.055649,208.170273 
	C213.981949,212.418259 219.065170,216.083755 223.189911,220.090866 
	C231.261383,227.932220 240.211441,232.758362 250.708160,236.315445 
	C267.259491,241.924286 284.159180,245.100006 301.472809,245.522659 
	C323.123474,246.051208 344.796783,245.660599 366.460297,245.650665 
	C370.944733,245.648605 375.119934,244.309143 378.490997,241.464279 
	C383.015442,237.646088 387.906311,234.172104 390.800049,228.648849 
	C392.643677,225.129868 394.862213,221.682175 397.498108,218.724167 
	C412.087067,202.352249 414.324646,182.734116 412.391357,162.140930 
	C411.933685,157.266083 411.995117,151.957993 409.484802,147.585693 
	C404.651733,139.167831 402.197693,129.757599 397.812714,121.166306 
	C393.362427,112.447189 388.766724,104.173569 378.112579,101.555740 
	C374.981415,100.786377 371.527466,100.050667 368.933289,97.805672 
	C364.874390,94.293114 359.875885,93.530289 354.943634,93.432800 
	C314.421967,92.631935 273.870911,94.708176 233.357697,91.538239 
	C221.473007,90.608322 212.196518,97.174820 204.998032,106.437477 
	C199.477585,113.540901 197.421204,122.251732 194.193726,130.380081 
	C187.525787,147.173096 186.175217,164.489807 190.466431,182.923889 
M112.883095,245.464813 
	C114.670212,240.857742 116.354744,236.232971 115.448128,231.019562 
	C112.131584,235.400620 110.411980,239.896606 110.342300,244.246307 
	C110.230537,251.222015 108.715881,253.227310 101.952332,255.277954 
	C99.199165,256.112671 96.415131,256.867493 93.687622,259.283630 
	C95.688667,259.493835 96.987236,259.584259 98.270699,259.775848 
	C100.210281,260.065369 101.131493,261.270020 101.205086,263.202332 
	C101.284927,265.298584 99.741730,265.800262 98.255348,266.684265 
	C95.698196,268.205109 91.816551,265.795227 89.676476,269.760376 
	C92.629219,271.210571 95.528053,270.325592 98.220482,270.787170 
	C99.877884,271.071259 101.009605,271.992950 101.055435,273.741302 
	C101.105415,275.647858 99.816414,276.214661 98.130150,276.410553 
	C96.544212,276.594818 94.853821,276.003479 92.686821,277.318542 
	C97.718803,277.780640 102.002396,277.921204 106.386559,276.868958 
	C109.798515,276.050049 110.674011,274.869629 110.230888,271.047882 
	C109.262894,262.699432 108.167831,254.115555 112.883095,245.464813 
z"/>
<path fill="#000000" opacity="1.000000" stroke="none" 
	d="
M251.698273,186.330719 
	C244.586472,181.017059 240.046936,174.097321 236.003464,166.782333 
	C235.272781,165.460464 234.657867,164.115143 234.688797,162.545990 
	C234.726074,160.654007 234.770111,158.617630 237.074707,158.189529 
	C239.508850,157.737350 239.702789,159.735703 240.479553,161.497330 
	C243.571808,168.510162 247.608337,174.877121 253.530319,179.996872 
	C263.201538,188.357971 272.111633,197.925995 285.584930,200.085892 
	C292.324585,201.166321 299.610962,202.246918 305.797180,199.765991 
	C313.355438,196.734802 320.816711,192.580765 325.744354,185.379684 
	C326.969330,183.589508 328.268951,180.497101 331.035217,182.671173 
	C333.744507,184.800446 332.273468,187.922684 330.427155,189.730118 
	C321.092987,198.867691 311.363556,206.444031 296.918549,206.645721 
	C280.402374,206.876358 267.183136,201.015106 255.687668,189.893509 
	C254.492584,188.737274 253.227890,187.652985 251.698273,186.330719 
z"/>
<path fill="#000000" opacity="1.000000" stroke="none" 
	d="
M250.788208,107.685379 
	C254.405746,107.924088 255.919113,109.803215 256.295410,112.803200 
	C256.699280,116.022957 255.967941,118.913429 252.973618,120.500053 
	C250.390472,121.868820 247.478058,121.964188 244.926834,120.307571 
	C242.651047,118.829819 241.168701,116.500359 240.113312,114.069221 
	C239.077759,111.683815 240.139984,109.730347 242.550873,108.940857 
	C245.052856,108.121521 247.626022,107.333282 250.788208,107.685379 
z"/>
<path fill="#000000" opacity="1.000000" stroke="none" 
	d="
M362.072510,121.306877 
	C357.331635,119.685570 356.745270,116.315414 358.316650,112.772202 
	C359.857819,109.297081 363.164917,108.966248 366.444580,110.267487 
	C369.809753,111.602676 371.659729,116.168938 370.130096,120.067650 
	C368.472565,124.292297 365.182465,121.672234 362.072510,121.306877 
z"/>
</svg>